<svg width="95" height="40" viewBox="0 0 349 127" fill="none" xmlns="http://www.w3.org/2000/svg">
    <path d="M131 63.5C131 98.5701 101.675 127 65.5 127C29.3253 127 0 98.5701 0 63.5C0 28.4299 29.3253 0 65.5 0C101.675 0 131 28.4299 131 63.5Z" fill="#AE3A3A"/>
    <path d="M162.466 57.9091V87H156.415V57.9091H162.466ZM179.718 65.1818V69.7273H166.579V65.1818H179.718ZM169.562 59.9545H175.613V80.2955C175.613 80.8542 175.698 81.2898 175.869 81.6023C176.039 81.9053 176.276 82.1184 176.579 82.2415C176.892 82.3646 177.251 82.4261 177.659 82.4261C177.943 82.4261 178.227 82.4025 178.511 82.3551C178.795 82.2983 179.013 82.2557 179.164 82.2273L180.116 86.7301C179.813 86.8248 179.387 86.9337 178.838 87.0568C178.288 87.1894 177.621 87.2699 176.835 87.2983C175.376 87.3551 174.098 87.161 173 86.7159C171.911 86.2708 171.063 85.5795 170.457 84.642C169.851 83.7045 169.553 82.5208 169.562 81.0909V59.9545ZM190.98 74.3864V87H184.929V57.9091H190.81V69.0312H191.065C191.558 67.7434 192.353 66.7348 193.452 66.0057C194.55 65.267 195.928 64.8977 197.585 64.8977C199.1 64.8977 200.421 65.2292 201.548 65.892C202.685 66.5455 203.565 67.4877 204.19 68.7188C204.825 69.9403 205.137 71.4034 205.128 73.108V87H199.077V74.1875C199.086 72.8428 198.745 71.7964 198.054 71.0483C197.372 70.3002 196.416 69.9261 195.185 69.9261C194.361 69.9261 193.631 70.1013 192.997 70.4517C192.372 70.8021 191.88 71.3134 191.52 71.9858C191.169 72.6487 190.989 73.4489 190.98 74.3864ZM213.644 95.1818C212.877 95.1818 212.158 95.1203 211.485 94.9972C210.822 94.8835 210.273 94.7367 209.838 94.5568L211.201 90.0398C211.911 90.2576 212.551 90.3759 213.119 90.3949C213.696 90.4138 214.194 90.2813 214.61 89.9972C215.036 89.7131 215.382 89.2301 215.647 88.5483L216.002 87.625L208.176 65.1818H214.539L219.056 81.2045H219.284L223.843 65.1818H230.249L221.769 89.358C221.362 90.5322 220.808 91.5549 220.107 92.4261C219.416 93.3068 218.54 93.9839 217.48 94.4574C216.419 94.9403 215.141 95.1818 213.644 95.1818ZM235.777 87V40.4545H254.413C257.837 40.4545 260.693 40.9621 262.981 41.9773C265.269 42.9924 266.989 44.4015 268.14 46.2045C269.292 47.9924 269.868 50.053 269.868 52.3864C269.868 54.2045 269.504 55.803 268.777 57.1818C268.049 58.5455 267.049 59.6667 265.777 60.5455C264.519 61.4091 263.08 62.0227 261.459 62.3864V62.8409C263.231 62.9167 264.89 63.4167 266.436 64.3409C267.996 65.2652 269.262 66.5606 270.231 68.2273C271.201 69.8788 271.686 71.8485 271.686 74.1364C271.686 76.6061 271.072 78.8106 269.845 80.75C268.633 82.6742 266.837 84.197 264.459 85.3182C262.08 86.4394 259.148 87 255.663 87H235.777ZM245.618 78.9545H253.64C256.383 78.9545 258.383 78.4318 259.64 77.3864C260.898 76.3258 261.527 74.9167 261.527 73.1591C261.527 71.8712 261.216 70.7348 260.595 69.75C259.974 68.7652 259.087 67.9924 257.936 67.4318C256.799 66.8712 255.443 66.5909 253.868 66.5909H245.618V78.9545ZM245.618 59.9318H252.913C254.262 59.9318 255.459 59.697 256.504 59.2273C257.565 58.7424 258.398 58.0606 259.004 57.1818C259.625 56.303 259.936 55.25 259.936 54.0227C259.936 52.3409 259.337 50.9848 258.14 49.9545C256.959 48.9242 255.277 48.4091 253.095 48.4091H245.618V59.9318ZM277.739 87V65.1818H283.79V87H277.739ZM280.778 62.3693C279.879 62.3693 279.107 62.071 278.463 61.4744C277.828 60.8684 277.511 60.1439 277.511 59.3011C277.511 58.4678 277.828 57.7528 278.463 57.1562C279.107 56.5502 279.879 56.2472 280.778 56.2472C281.678 56.2472 282.445 56.5502 283.079 57.1562C283.723 57.7528 284.045 58.4678 284.045 59.3011C284.045 60.1439 283.723 60.8684 283.079 61.4744C282.445 62.071 281.678 62.3693 280.778 62.3693ZM301.042 65.1818V69.7273H287.903V65.1818H301.042ZM290.886 59.9545H296.937V80.2955C296.937 80.8542 297.022 81.2898 297.193 81.6023C297.363 81.9053 297.6 82.1184 297.903 82.2415C298.215 82.3646 298.575 82.4261 298.982 82.4261C299.267 82.4261 299.551 82.4025 299.835 82.3551C300.119 82.2983 300.337 82.2557 300.488 82.2273L301.44 86.7301C301.137 86.8248 300.711 86.9337 300.161 87.0568C299.612 87.1894 298.945 87.2699 298.159 87.2983C296.7 87.3551 295.422 87.161 294.323 86.7159C293.234 86.2708 292.387 85.5795 291.781 84.642C291.175 83.7045 290.876 82.5208 290.886 81.0909V59.9545ZM315.493 87.4261C313.248 87.4261 311.317 86.9716 309.697 86.0625C308.087 85.1439 306.847 83.8466 305.976 82.1705C305.104 80.4848 304.669 78.4915 304.669 76.1903C304.669 73.946 305.104 71.9763 305.976 70.2812C306.847 68.5862 308.073 67.2652 309.655 66.3182C311.245 65.3712 313.111 64.8977 315.251 64.8977C316.691 64.8977 318.031 65.1297 319.271 65.5938C320.521 66.0483 321.61 66.7348 322.538 67.6534C323.476 68.572 324.205 69.7273 324.726 71.1193C325.246 72.5019 325.507 74.1212 325.507 75.9773V77.6392H307.084V73.8892H319.811C319.811 73.018 319.621 72.2462 319.243 71.5739C318.864 70.9015 318.338 70.3759 317.666 69.9972C317.003 69.6089 316.231 69.4148 315.351 69.4148C314.432 69.4148 313.618 69.6278 312.907 70.054C312.207 70.4706 311.657 71.0341 311.26 71.7443C310.862 72.4451 310.658 73.2263 310.649 74.0881V77.6534C310.649 78.733 310.848 79.6657 311.245 80.4517C311.653 81.2377 312.226 81.8438 312.964 82.2699C313.703 82.696 314.579 82.9091 315.592 82.9091C316.264 82.9091 316.88 82.8144 317.439 82.625C317.997 82.4356 318.476 82.1515 318.873 81.7727C319.271 81.3939 319.574 80.9299 319.782 80.3807L325.379 80.75C325.095 82.0947 324.513 83.2689 323.632 84.2727C322.761 85.267 321.634 86.0436 320.251 86.6023C318.878 87.1515 317.292 87.4261 315.493 87.4261ZM348.409 71.4034L342.869 71.7443C342.775 71.2708 342.571 70.8447 342.259 70.4659C341.946 70.0777 341.534 69.7699 341.023 69.5426C340.521 69.3059 339.92 69.1875 339.219 69.1875C338.281 69.1875 337.491 69.3864 336.847 69.7841C336.203 70.1723 335.881 70.6932 335.881 71.3466C335.881 71.8674 336.089 72.3078 336.506 72.6676C336.922 73.0275 337.637 73.3163 338.651 73.5341L342.599 74.3295C344.721 74.7652 346.302 75.4659 347.344 76.4318C348.385 77.3977 348.906 78.6667 348.906 80.2386C348.906 81.6686 348.485 82.9233 347.642 84.0028C346.809 85.0824 345.663 85.9252 344.205 86.5312C342.756 87.1278 341.084 87.4261 339.19 87.4261C336.302 87.4261 334.001 86.8248 332.287 85.6222C330.582 84.41 329.583 82.7623 329.29 80.679L335.242 80.3665C335.421 81.2472 335.857 81.9195 336.548 82.3835C337.24 82.8381 338.125 83.0653 339.205 83.0653C340.265 83.0653 341.117 82.8617 341.761 82.4545C342.415 82.0379 342.746 81.5028 342.756 80.8494C342.746 80.3002 342.514 79.8504 342.06 79.5C341.605 79.1402 340.904 78.8655 339.957 78.6761L336.179 77.9233C334.048 77.4972 332.462 76.7585 331.42 75.7074C330.388 74.6562 329.872 73.3163 329.872 71.6875C329.872 70.286 330.251 69.0786 331.009 68.0653C331.776 67.0521 332.85 66.2708 334.233 65.7216C335.625 65.1723 337.254 64.8977 339.119 64.8977C341.875 64.8977 344.044 65.4801 345.625 66.6449C347.216 67.8097 348.144 69.3958 348.409 71.4034Z" fill="white"/>
    <path d="M60.0455 87V40.4545H69.8864V59.6591H89.8636V40.4545H99.6818V87H89.8636V67.7727H69.8864V87H60.0455ZM117.388 87.4261C115.144 87.4261 113.212 86.9716 111.592 86.0625C109.983 85.1439 108.742 83.8466 107.871 82.1705C107 80.4848 106.564 78.4915 106.564 76.1903C106.564 73.946 107 71.9763 107.871 70.2812C108.742 68.5862 109.968 67.2652 111.55 66.3182C113.141 65.3712 115.006 64.8977 117.146 64.8977C118.586 64.8977 119.926 65.1297 121.166 65.5938C122.416 66.0483 123.505 66.7348 124.433 67.6534C125.371 68.572 126.1 69.7273 126.621 71.1193C127.142 72.5019 127.402 74.1212 127.402 75.9773V77.6392H108.979V73.8892H121.706C121.706 73.018 121.517 72.2462 121.138 71.5739C120.759 70.9015 120.234 70.3759 119.561 69.9972C118.898 69.6089 118.127 69.4148 117.246 69.4148C116.327 69.4148 115.513 69.6278 114.803 70.054C114.102 70.4706 113.553 71.0341 113.155 71.7443C112.757 72.4451 112.554 73.2263 112.544 74.0881V77.6534C112.544 78.733 112.743 79.6657 113.141 80.4517C113.548 81.2377 114.121 81.8438 114.86 82.2699C115.598 82.696 116.474 82.9091 117.487 82.9091C118.16 82.9091 118.775 82.8144 119.334 82.625C119.893 82.4356 120.371 82.1515 120.769 81.7727C121.166 81.3939 121.469 80.9299 121.678 80.3807L127.274 80.75C126.99 82.0947 126.408 83.2689 125.527 84.2727C124.656 85.267 123.529 86.0436 122.146 86.6023C120.773 87.1515 119.187 87.4261 117.388 87.4261ZM138.373 87.4119C136.981 87.4119 135.74 87.1705 134.651 86.6875C133.562 86.1951 132.7 85.4706 132.066 84.5142C131.441 83.5483 131.128 82.3456 131.128 80.9062C131.128 79.6941 131.351 78.6761 131.796 77.8523C132.241 77.0284 132.847 76.3655 133.614 75.8636C134.381 75.3617 135.252 74.983 136.228 74.7273C137.213 74.4716 138.245 74.2917 139.324 74.1875C140.593 74.0549 141.616 73.9318 142.393 73.8182C143.169 73.6951 143.732 73.5152 144.083 73.2784C144.433 73.0417 144.608 72.6913 144.608 72.2273V72.142C144.608 71.2424 144.324 70.5464 143.756 70.054C143.197 69.5616 142.402 69.3153 141.37 69.3153C140.281 69.3153 139.414 69.5568 138.77 70.0398C138.126 70.5133 137.7 71.1098 137.492 71.8295L131.895 71.375C132.179 70.0492 132.738 68.9034 133.571 67.9375C134.405 66.9621 135.48 66.214 136.796 65.6932C138.122 65.1629 139.656 64.8977 141.398 64.8977C142.61 64.8977 143.77 65.0398 144.878 65.3239C145.996 65.608 146.985 66.0483 147.847 66.6449C148.718 67.2415 149.405 68.0085 149.907 68.946C150.409 69.8741 150.66 70.9867 150.66 72.2841V87H144.921V83.9744H144.75C144.4 84.6562 143.931 85.2576 143.344 85.7784C142.757 86.2898 142.052 86.6922 141.228 86.9858C140.404 87.2699 139.452 87.4119 138.373 87.4119ZM140.106 83.2358C140.996 83.2358 141.782 83.0606 142.464 82.7102C143.145 82.3504 143.68 81.8674 144.069 81.2614C144.457 80.6553 144.651 79.9687 144.651 79.2017V76.8864C144.462 77.0095 144.201 77.1231 143.87 77.2273C143.548 77.322 143.183 77.4119 142.776 77.4972C142.369 77.5729 141.962 77.6439 141.554 77.7102C141.147 77.767 140.778 77.8191 140.446 77.8665C139.736 77.9706 139.116 78.1364 138.586 78.3636C138.055 78.5909 137.643 78.8987 137.35 79.2869C137.056 79.6657 136.91 80.1392 136.91 80.7074C136.91 81.5312 137.208 82.161 137.804 82.5966C138.41 83.0227 139.178 83.2358 140.106 83.2358Z" fill="white"/>
    </svg>
